<svg width="96" height="123" viewBox="0 0 96 123" fill="none" xmlns="http://www.w3.org/2000/svg">
<g filter="url(#filter0_d_1289_27267)">
<mask id="path-1-outside-1_1289_27267" maskUnits="userSpaceOnUse" x="32" y="53.256" width="32" height="55" fill="black">
<rect fill="white" x="32" y="53.256" width="32" height="55"/>
<path fill-rule="evenodd" clip-rule="evenodd" d="M52 55.256H44V106.256H52V55.256ZM34 63.256H42V106.256H34V63.256ZM54 63.256H62V106.256H54V63.256Z"/>
</mask>
<path fill-rule="evenodd" clip-rule="evenodd" d="M52 55.256H44V106.256H52V55.256ZM34 63.256H42V106.256H34V63.256ZM54 63.256H62V106.256H54V63.256Z" fill="#FCD108"/>
<path d="M44 55.256V53.256H42V55.256H44ZM52 55.256H54V53.256H52V55.256ZM44 106.256H42V108.256H44V106.256ZM52 106.256V108.256H54V106.256H52ZM42 63.256H44V61.256H42V63.256ZM34 63.256V61.256H32V63.256H34ZM42 106.256V108.256H44V106.256H42ZM34 106.256H32V108.256H34V106.256ZM62 63.256H64V61.256H62V63.256ZM54 63.256V61.256H52V63.256H54ZM62 106.256V108.256H64V106.256H62ZM54 106.256H52V108.256H54V106.256ZM44 57.256H52V53.256H44V57.256ZM46 106.256V55.256H42V106.256H46ZM52 104.256H44V108.256H52V104.256ZM50 55.256V106.256H54V55.256H50ZM42 61.256H34V65.256H42V61.256ZM44 106.256V63.256H40V106.256H44ZM34 108.256H42V104.256H34V108.256ZM32 63.256V106.256H36V63.256H32ZM62 61.256H54V65.256H62V61.256ZM64 106.256V63.256H60V106.256H64ZM54 108.256H62V104.256H54V108.256ZM52 63.256V106.256H56V63.256H52Z" fill="white" mask="url(#path-1-outside-1_1289_27267)"/>
<mask id="path-3-outside-2_1289_27267" maskUnits="userSpaceOnUse" x="12" y="5.25598" width="72" height="75" fill="black">
<rect fill="white" x="12" y="5.25598" width="72" height="75"/>
<path fill-rule="evenodd" clip-rule="evenodd" d="M44 7.25598H52V53.256H44V7.25598ZM42 17.256H34V61.256H42V17.256ZM54 17.256H62V61.256H54V17.256ZM32 27.256H24V66.256L32 74.4434V27.256ZM72 27.256H64V74.4434L72 66.256V27.256ZM22 37.256H14V55.256L22 64.256V37.256ZM82 37.256H74V64.256L82 55.256V37.256Z"/>
</mask>
<path fill-rule="evenodd" clip-rule="evenodd" d="M44 7.25598H52V53.256H44V7.25598ZM42 17.256H34V61.256H42V17.256ZM54 17.256H62V61.256H54V17.256ZM32 27.256H24V66.256L32 74.4434V27.256ZM72 27.256H64V74.4434L72 66.256V27.256ZM22 37.256H14V55.256L22 64.256V37.256ZM82 37.256H74V64.256L82 55.256V37.256Z" fill="black"/>
<path d="M52 7.25598H54V5.25598H52V7.25598ZM44 7.25598V5.25598H42V7.25598H44ZM52 53.256V55.256H54V53.256H52ZM44 53.256H42V55.256H44V53.256ZM34 17.256V15.256H32V17.256H34ZM42 17.256H44V15.256H42V17.256ZM34 61.256H32V63.256H34V61.256ZM42 61.256V63.256H44V61.256H42ZM62 17.256H64V15.256H62V17.256ZM54 17.256V15.256H52V17.256H54ZM62 61.256V63.256H64V61.256H62ZM54 61.256H52V63.256H54V61.256ZM24 27.256V25.256H22V27.256H24ZM32 27.256H34V25.256H32V27.256ZM24 66.256H22V67.0709L22.5695 67.6537L24 66.256ZM32 74.4434L30.5695 75.8411L34 79.352V74.4434H32ZM64 27.256V25.256H62V27.256H64ZM72 27.256H74V25.256H72V27.256ZM64 74.4434H62V79.352L65.4305 75.8411L64 74.4434ZM72 66.256L73.4305 67.6537L74 67.0709V66.256H72ZM14 37.256V35.256H12V37.256H14ZM22 37.256H24V35.256H22V37.256ZM14 55.256H12V56.0164L12.5052 56.5847L14 55.256ZM22 64.256L20.5052 65.5847L24 69.5164V64.256H22ZM74 37.256V35.256H72V37.256H74ZM82 37.256H84V35.256H82V37.256ZM74 64.256H72V69.5164L75.4948 65.5847L74 64.256ZM82 55.256L83.4948 56.5847L84 56.0164V55.256H82ZM52 5.25598H44V9.25598H52V5.25598ZM54 53.256V7.25598H50V53.256H54ZM44 55.256H52V51.256H44V55.256ZM42 7.25598V53.256H46V7.25598H42ZM34 19.256H42V15.256H34V19.256ZM36 61.256V17.256H32V61.256H36ZM42 59.256H34V63.256H42V59.256ZM40 17.256V61.256H44V17.256H40ZM62 15.256H54V19.256H62V15.256ZM64 61.256V17.256H60V61.256H64ZM54 63.256H62V59.256H54V63.256ZM52 17.256V61.256H56V17.256H52ZM24 29.256H32V25.256H24V29.256ZM26 66.256V27.256H22V66.256H26ZM33.4305 73.0456L25.4305 64.8582L22.5695 67.6537L30.5695 75.8411L33.4305 73.0456ZM30 27.256V74.4434H34V27.256H30ZM64 29.256H72V25.256H64V29.256ZM66 74.4434V27.256H62V74.4434H66ZM70.5695 64.8582L62.5695 73.0456L65.4305 75.8411L73.4305 67.6537L70.5695 64.8582ZM70 27.256V66.256H74V27.256H70ZM14 39.256H22V35.256H14V39.256ZM16 55.256V37.256H12V55.256H16ZM23.4948 62.9273L15.4948 53.9273L12.5052 56.5847L20.5052 65.5847L23.4948 62.9273ZM20 37.256V64.256H24V37.256H20ZM74 39.256H82V35.256H74V39.256ZM76 64.256V37.256H72V64.256H76ZM80.5052 53.9273L72.5052 62.9273L75.4948 65.5847L83.4948 56.5847L80.5052 53.9273ZM80 37.256V55.256H84V37.256H80Z" fill="white" mask="url(#path-3-outside-2_1289_27267)"/>
</g>
<defs>
<filter id="filter0_d_1289_27267" x="-9.6" y="0.455981" width="115.2" height="122.2" filterUnits="userSpaceOnUse" color-interpolation-filters="sRGB">
<feFlood flood-opacity="0" result="BackgroundImageFix"/>
<feColorMatrix in="SourceAlpha" type="matrix" values="0 0 0 0 0 0 0 0 0 0 0 0 0 0 0 0 0 0 127 0" result="hardAlpha"/>
<feOffset dy="4.8"/>
<feGaussianBlur stdDeviation="4.8"/>
<feComposite in2="hardAlpha" operator="out"/>
<feColorMatrix type="matrix" values="0 0 0 0 0 0 0 0 0 0 0 0 0 0 0 0 0 0 0.2 0"/>
<feBlend mode="normal" in2="BackgroundImageFix" result="effect1_dropShadow_1289_27267"/>
<feBlend mode="normal" in="SourceGraphic" in2="effect1_dropShadow_1289_27267" result="shape"/>
</filter>
</defs>
</svg>
